# xmcd
#
# Track frame offsets: 
#        150
#        18643
#        42231
#        64301
#        88439
#        104609
#
# Disc length: 1889 seconds
#
# Revision: 0
# Processed by: cddbd v1.5.1PL0 Copyright (c) Steve Scherf et al.
# Submitted via: ExactAudioCopy v0.95a5
#
DISCID=55075f06
DTITLE=Tunebone - WZDRAVR
DYEAR=2005
DGENRE=Blues
TTITLE0=Tunebone - Woar zit dien reet aan vastroust
TTITLE1=Tunebone - Hoast
TTITLE2=Tunebone - Pobbedop
TTITLE3=Tunebone - Hemm'n joe dat ook wel ais
TTITLE4=Tunebone - Oap ien de nek
TTITLE5=Tunebone - Eev'm terug
EXTD=
EXTT0=
EXTT1=
EXTT2=
EXTT3=
EXTT4=
EXTT5=
PLAYORDER=
